<?xml version="1.0" encoding="UTF-8" standalone="no"?>
<svg
   xmlns:dc="http://purl.org/dc/elements/1.1/"
   xmlns:cc="http://creativecommons.org/ns#"
   xmlns:rdf="http://www.w3.org/1999/02/22-rdf-syntax-ns#"
   xmlns:svg="http://www.w3.org/2000/svg"
   xmlns="http://www.w3.org/2000/svg"
   xmlns:sodipodi="http://sodipodi.sourceforge.net/DTD/sodipodi-0.dtd"
   xmlns:inkscape="http://www.inkscape.org/namespaces/inkscape"
   width="24"
   height="24"
   viewBox="0 0 24 24"
   id="svg7479"
   version="1.1"
   inkscape:version="0.92.1 r15371"
   sodipodi:docname="ic_clipboard_service.svg">
  <metadata
     id="metadata7489">
    <rdf:RDF>
      <cc:Work
         rdf:about="">
        <dc:format>image/svg+xml</dc:format>
        <dc:type
           rdf:resource="http://purl.org/dc/dcmitype/StillImage" />
        <dc:title />
      </cc:Work>
    </rdf:RDF>
  </metadata>
  <defs
     id="defs7487" />
  <sodipodi:namedview
     pagecolor="#9aa2a8"
     bordercolor="#666666"
     borderopacity="1"
     objecttolerance="10"
     gridtolerance="10"
     guidetolerance="10"
     inkscape:pageopacity="0"
     inkscape:pageshadow="2"
     inkscape:window-width="1920"
     inkscape:window-height="1057"
     id="namedview7485"
     showgrid="true"
     inkscape:zoom="37"
     inkscape:cx="12"
     inkscape:cy="12"
     inkscape:window-x="-8"
     inkscape:window-y="-8"
     inkscape:window-maximized="1"
     inkscape:current-layer="svg7479"
     inkscape:snap-text-baseline="false"
     inkscape:snap-smooth-nodes="true"
     inkscape:snap-intersection-paths="true">
    <inkscape:grid
       type="xygrid"
       id="grid8031" />
  </sodipodi:namedview>
  <path
     d="M 21,3 H 15 C 14.44,1.7345454 13.733334,1 12,1 10.266666,1 9.56,1.7345454 9,3 H 3 C 1.5333332,3 1.0054113,2.8000121 1,4 L 0.91891844,21.980344 C 0.91350714,23.180333 1.5333332,23 3,23 h 18 c 1.466667,0 2.086784,0.261419 2.081081,-0.938569 L 23,5 C 22.994297,3.8000135 22.466667,3 21,3 Z M 12,2.046683 c 0.733334,0 1.333333,0.6260442 1.333333,1.2260442 0,0.6000001 -0.572972,1.3071254 -1.306306,1.3071254 -0.733334,0 -1.306307,-0.7071253 -1.306307,-1.3071254 0,-0.6 0.545946,-1.2260442 1.27928,-1.2260442 z M 21,21 H 3 V 5 H 6 V 7 H 18 V 5 h 3 z"
     id="path7481"
     inkscape:connector-curvature="0"
     style="fill:#ffffff;fill-rule:nonzero;stroke-width:1"
     sodipodi:nodetypes="scscsssssssssssssccccccccc" />
  <path
     d="M0 0h24v24H0z"
     fill="none"
     id="path7483" />
  <g
     inkscape:groupmode="layer"
     id="layer1"
     inkscape:label="eye">
    <text
       xml:space="preserve"
       style="font-style:normal;font-weight:normal;font-size:13.33333333px;line-height:25px;font-family:Tahoma;letter-spacing:0px;word-spacing:0px;fill:#000000;fill-opacity:1;stroke:none;-inkscape-font-specification:Tahoma;font-stretch:normal;font-variant:normal;"
       x="10"
       y="15"
       id="text3694"><tspan
         sodipodi:role="line"
         id="tspan3692"
         x="10"
         y="35.16214" /></text>
    <g
       aria-label="M"
       transform="scale(1.2596322,0.79388253)"
       style="font-style:normal;font-weight:normal;font-size:17.24325752px;line-height:16.16555595px;font-family:sans-serif;letter-spacing:0px;word-spacing:0px;fill:#ffffff;fill-opacity:1;stroke:none;stroke-width:1"
       id="text3706">
      <path
         d="m 15.083768,23.933012 h -1.587765 l 0,-10.077058 -3.17553,7.557793 H 8.7327078 l -3.1755301,-7.557793 0,10.077058 h -1.587765 l 0,-12.596322 h 2.3816476 l 3.1755301,7.557793 3.1755306,-7.557793 h 2.381647 z"
         style="fill:#ffffff;fill-opacity:1;stroke-width:1"
         id="path3720"
         inkscape:connector-curvature="0"
         sodipodi:nodetypes="cccccccccccccc" />
    </g>
  </g>
</svg>
