<?xml version="1.0" encoding="UTF-8" standalone="no"?>
<svg
   xmlns:dc="http://purl.org/dc/elements/1.1/"
   xmlns:cc="http://creativecommons.org/ns#"
   xmlns:rdf="http://www.w3.org/1999/02/22-rdf-syntax-ns#"
   xmlns:svg="http://www.w3.org/2000/svg"
   xmlns="http://www.w3.org/2000/svg"
   xmlns:sodipodi="http://sodipodi.sourceforge.net/DTD/sodipodi-0.dtd"
   xmlns:inkscape="http://www.inkscape.org/namespaces/inkscape"
   width="24"
   height="24"
   viewBox="0 0 24 24"
   id="svg7479"
   version="1.1"
   inkscape:version="0.92.1 r15371"
   sodipodi:docname="ic_notification_service.svg">
  <metadata
     id="metadata7489">
    <rdf:RDF>
      <cc:Work
         rdf:about="">
        <dc:format>image/svg+xml</dc:format>
        <dc:type
           rdf:resource="http://purl.org/dc/dcmitype/StillImage" />
        <dc:title></dc:title>
      </cc:Work>
    </rdf:RDF>
  </metadata>
  <defs
     id="defs7487" />
  <sodipodi:namedview
     pagecolor="#9aa2a8"
     bordercolor="#666666"
     borderopacity="1"
     objecttolerance="10"
     gridtolerance="10"
     guidetolerance="10"
     inkscape:pageopacity="0"
     inkscape:pageshadow="2"
     inkscape:window-width="1920"
     inkscape:window-height="1057"
     id="namedview7485"
     showgrid="true"
     inkscape:zoom="37"
     inkscape:cx="6.5945946"
     inkscape:cy="12.227507"
     inkscape:window-x="-8"
     inkscape:window-y="-8"
     inkscape:window-maximized="1"
     inkscape:current-layer="layer1"
     inkscape:snap-text-baseline="false">
    <inkscape:grid
       type="xygrid"
       id="grid8031" />
  </sodipodi:namedview>
  <path
     d="M 21.333334,2.1818182 H 15.760001 C 15.200001,0.91636364 13.733335,0 12.000001,0 10.266667,0 8.7999999,0.91636364 8.2399999,2.1818182 H 2.6666663 C 1.1999995,2.1818182 -5e-7,3.1636364 -5e-7,4.3636365 V 21.818182 C -5e-7,23.018183 1.1999995,24 2.6666663,24 H 21.333334 C 22.800001,24 24,23.018183 24,21.818182 V 4.3636365 C 24,3.1636364 22.800001,2.1818182 21.333334,2.1818182 Z m -9.333334,0 c 0.733334,0 1.333333,0.4909091 1.333333,1.0909091 0,0.6000001 -0.599999,1.0909092 -1.333333,1.0909092 -0.733334,0 -1.333334,-0.4909091 -1.333334,-1.0909092 0,-0.6 0.6,-1.0909091 1.333334,-1.0909091 z M 21.333334,21.818182 H 2.6666663 V 4.3636365 H 5.333333 V 7.6363638 H 18.666667 V 4.3636365 h 2.666668 z"
     id="path7481"
     inkscape:connector-curvature="0"
     style="fill:#ffffff;fill-rule:nonzero;stroke-width:1" />
  <path
     d="M0 0h24v24H0z"
     fill="none"
     id="path7483" />
  <g
     inkscape:groupmode="layer"
     id="layer1"
     inkscape:label="eye">
    <text
       xml:space="preserve"
       style="font-style:normal;font-weight:normal;font-size:13.33333333px;line-height:25px;font-family:Tahoma;letter-spacing:0px;word-spacing:0px;fill:#000000;fill-opacity:1;stroke:none;-inkscape-font-specification:Tahoma;font-stretch:normal;font-variant:normal;"
       x="10"
       y="15"
       id="text3694"><tspan
         sodipodi:role="line"
         id="tspan3692"
         x="10"
         y="35.16214" /></text>
    <text
       xml:space="preserve"
       style="font-style:normal;font-weight:normal;font-size:17.24325752px;line-height:16.16555595px;font-family:sans-serif;letter-spacing:0px;word-spacing:0px;fill:#ffffff;fill-opacity:1;stroke:none;stroke-width:1;"
       x="2.2605107"
       y="24.822405"
       id="text3706"
       transform="scale(1.2596322,0.79388253)"><tspan
         sodipodi:role="line"
         id="tspan3704"
         x="2.2605107"
         y="24.822405"
         style="stroke-width:1;fill:#ffffff;fill-opacity:1;">M</tspan></text>
  </g>
</svg>
