<?xml version="1.0" encoding="UTF-8" standalone="no"?>
<svg
   xmlns:dc="http://purl.org/dc/elements/1.1/"
   xmlns:cc="http://creativecommons.org/ns#"
   xmlns:rdf="http://www.w3.org/1999/02/22-rdf-syntax-ns#"
   xmlns:svg="http://www.w3.org/2000/svg"
   xmlns="http://www.w3.org/2000/svg"
   xmlns:sodipodi="http://sodipodi.sourceforge.net/DTD/sodipodi-0.dtd"
   xmlns:inkscape="http://www.inkscape.org/namespaces/inkscape"
   width="24"
   height="24"
   viewBox="0 0 24 24"
   id="svg7479"
   version="1.1"
   inkscape:version="0.92.1 r15371"
   sodipodi:docname="ic_notification_error.svg"
   inkscape:export-filename="C:\Users\mike\Documents\GitHub\pushy-android\assets\ic_notification_error.png"
   inkscape:export-xdpi="384"
   inkscape:export-ydpi="384">
  <metadata
     id="metadata7489">
    <rdf:RDF>
      <cc:Work
         rdf:about="">
        <dc:format>image/svg+xml</dc:format>
        <dc:type
           rdf:resource="http://purl.org/dc/dcmitype/StillImage" />
        <dc:title></dc:title>
      </cc:Work>
    </rdf:RDF>
  </metadata>
  <defs
     id="defs7487" />
  <sodipodi:namedview
     pagecolor="#9aa2a8"
     bordercolor="#666666"
     borderopacity="1"
     objecttolerance="10"
     gridtolerance="10"
     guidetolerance="10"
     inkscape:pageopacity="0"
     inkscape:pageshadow="2"
     inkscape:window-width="1920"
     inkscape:window-height="1057"
     id="namedview7485"
     showgrid="true"
     inkscape:zoom="37"
     inkscape:cx="12"
     inkscape:cy="12"
     inkscape:window-x="-8"
     inkscape:window-y="-8"
     inkscape:window-maximized="1"
     inkscape:current-layer="svg7479">
    <inkscape:grid
       type="xygrid"
       id="grid8031" />
  </sodipodi:namedview>
  <path
     d="M 19,3 H 14.82 C 14.4,1.84 13.3,1 12,1 10.7,1 9.6,1.84 9.18,3 H 5 C 3.9,3 3,3.9 3,5 v 16 c 0,1.1 0.9,2 2,2 h 14 c 1.1,0 2,-0.9 2,-2 V 5 C 21,3.9 20.1,3 19,3 Z m -7,0 c 0.55,0 1,0.45 1,1 0,0.55 -0.45,1 -1,1 -0.55,0 -1,-0.45 -1,-1 0,-0.55 0.45,-1 1,-1 z m 7,18 H 5 V 5 H 7 V 7 H 17 V 5 h 2 z"
     id="path7481"
     inkscape:connector-curvature="0"
     style="fill:#ffffff;fill-rule:nonzero"
     sodipodi:nodetypes="scscsssssssssssssccccccccc" />
  <path
     d="M0 0h24v24H0z"
     fill="none"
     id="path7483" />
  <path
     d="m 12,9.042628 c -2.7366427,0 -4.957686,2.218564 -4.957686,4.957686 0,2.739122 2.2210433,4.957686 4.957686,4.957686 2.736643,0 4.957686,-2.218564 4.957686,-4.957686 0,-2.739122 -2.221043,-4.957686 -4.957686,-4.957686 z m 1,8.457686 h -2 v -2 h 2 z m 0,-3 h -2 v -4 h 2 z"
     id="path5593"
     inkscape:connector-curvature="0"
     style="fill:#ffffff;stroke-width:1.00000012"
     sodipodi:nodetypes="ssssscccccccccc" />
</svg>
